<?xml version="1.0" encoding="UTF-8"?>
<svg width="1200pt" height="1200pt" version="1.1" viewBox="0 0 1200 1200" xmlns="http://www.w3.org/2000/svg">
 <g fill="#010101">
  <path d="m360.57 778.07h-31.547v29.555h-26.352v-29.555h-38.34v29.555l-23.363 0.003906v-29.555l-38.34-0.003906s-24.156 390.56 381.57 421.92v-155.14s-210.85 2.0039-223.63-266.79z"/>
  <path d="m637.71 165.18-2.3984 105.43h-57.492v-105.43l-26.762-165.18h-7.582l-23.555 165.18v105.43h-29.555v22.453l28.754 41.039 1.1992 111.42h-59.102v-111.42l-26.363-168.93h-7.5859l-23.965 168.93-1.5977 111.42-29.949-0.003906v33.254l29.16 32.652-1.1992 95.746s-27.551-58.715-90.648-61.309c-63.098-2.5938-105.02 50.125-108.23 73.68h198.86v105.43s-43.199-61.992-104.23-61.992c-61.02 0-110.22 12.07-142.97 86.555h248.39s-22.453 224.64 183.3 259.98h39.938s203.55-21.863 184.09-259.98h239.25s-20.449-79.68-111.42-86.555c-90.973-6.8867-128.21 58.402-128.21 58.402l-1.5859-101.84h202.86s-18.781-71.473-89.074-73.68c-70.285-2.1953-101.5 47.328-113.79 60.504l1.9688-94.945 28.766-32.652 0.78125-33.254h-31.523v-111.42l-23.172-168.93h-7.6094l-24.742 168.93-1.6211 111.42h-55.117v-111.42l31.164-41.039-0.39453-22.453h-30.758v-105.43l-24.73-165.17h-7.6094zm-3.7656 440.58c-7.8008-1.1992-50.93 0-50.93 0v-94.344l26.352-29.051 28.754 29.051c-0.011719-0.003907 3.5977 95.555-4.1758 94.344zm-170.74-94.348 28.754-32.652 29.953 32.652v108.11c-28.164 9.6016-58.703 43.441-58.703 43.441zm83.461 144.66 47.93 85.668h-96.254zm111.82 188.7h-99.828l49.906-82.656zm-171.32-82.656 48.73 82.656h-96.254zm13.582 183.88 47.52-81.457 49.117 81.457zm214.48 0h-97.066l49.512-81.457zm61.07-101.22h-97.441l50.316-82.656zm-158.55-103.04 48.336-85.668 47.125 85.668zm131.2-230.33v151.55c-16.152-14.676-52.715-39.254-52.715-39.254v-112.31l25.766-32.652zm-110.83-177.31v111.42h-57.492v-111.42l26.953-25.453z"/>
  <path d="m1005.1 778.07h-36.723l3.1914 29.555h-28.754v-29.555h-35.156v29.555h-23.953v-29.555h-37.547c-0.39453 259.2-215.68 266.58-215.68 266.58v155.36c396.12-34.152 374.62-421.93 374.62-421.93z"/>
 </g>
</svg>
